# xmcd
#
# Track frame offsets:
#	150
#	19335
#	38487
#	58875
#	72335
#	88197
#	104735
#	121712
#	141345
#	158980
#
# Disc length: 2289 seconds
#
# Revision: 4
# Processed by: cddbd v1.5.2PL0 Copyright (c) Steve Scherf et al.
# Submitted via: EasyCDDAExtractor 15.3.0.1
#
DISCID=8e08ef0a
DTITLE=Ednita Nazario - Mis Mejores Momentos
DYEAR=1999
DGENRE=Latin
TTITLE0=A Que No Le Cuentas
TTITLE1=Yo Soy La Mujer
TTITLE2=Me Quedo Aqui Abajo
TTITLE3=Amandote
TTITLE4=La Prohibida
TTITLE5=Mi Pequeño Amor
TTITLE6=Que Me Ame Mas
TTITLE7=El Dolor De Tu Presencia
TTITLE8=Tu, Sin Mi
TTITLE9=Alma De Gitana
EXTD=
EXTT0=
EXTT1=
EXTT2=
EXTT3=
EXTT4=
EXTT5=
EXTT6=
EXTT7=
EXTT8=
EXTT9=
PLAYORDER=
